HIERARCHY
ROOT Hips
{
	OFFSET 0.000000 0.000000 0.000000 
	CHANNELS 6 Xposition Yposition Zposition Zrotation Yrotation Xrotation
	JOINT LeftUpLeg
	{
		OFFSET 1.363060 -1.794630 0.839290 
		CHANNELS 3 Zrotation Yrotation Xrotation
		JOINT LeftLeg
		{
			OFFSET 2.448110 -6.726130 0.000000 
			CHANNELS 3 Zrotation Yrotation Xrotation
			JOINT LeftFoot
			{
				OFFSET 2.562200 -7.039590 0.000000 
				CHANNELS 3 Zrotation Yrotation Xrotation
				JOINT LeftToeBase
				{
					OFFSET 0.157640 -0.433110 2.322550 
					CHANNELS 3 Zrotation Yrotation Xrotation
					End Site
					{
						OFFSET 0.000000 0.000000 0.000000 
					}
				}
			}
		}
	}
	JOINT RightUpLeg
	{
		OFFSET -1.305520 -1.794630 0.839290 
		CHANNELS 3 Zrotation Yrotation Xrotation
		JOINT RightLeg
		{
			OFFSET -2.542530 -6.985550 0.000000 
			CHANNELS 3 Zrotation Yrotation Xrotation
			JOINT RightFoot
			{
				OFFSET -2.568260 -7.056230 0.000000 
				CHANNELS 3 Zrotation Yrotation Xrotation
				JOINT RightToeBase
				{
					OFFSET -0.164730 -0.452590 2.363150 
					CHANNELS 3 Zrotation Yrotation Xrotation
					End Site
					{
						OFFSET 0.000000 0.000000 0.000000 
					}
				}
			}
		}
	}
	JOINT Spine
	{
		OFFSET 0.028270 2.035590 -0.193380 
		CHANNELS 3 Zrotation Yrotation Xrotation
		JOINT Spine1
		{
			OFFSET 0.056720 2.048850 -0.042750 
			CHANNELS 3 Zrotation Yrotation Xrotation
			JOINT Neck1
			{
				OFFSET -0.054170 1.746240 0.172020 
				CHANNELS 3 Zrotation Yrotation Xrotation
				JOINT Head
				{
					OFFSET 0.104070 1.761360 -0.123970 
					CHANNELS 3 Zrotation Yrotation Xrotation
					End Site
					{
						OFFSET 0.000000 0.000000 0.000000 
					}
				}
			}
			JOINT LeftArm
			{
				OFFSET 3.362410 1.200890 -0.311210 
				CHANNELS 3 Zrotation Yrotation Xrotation
				JOINT LeftForeArm
				{
					OFFSET 4.983000 -0.000000 -0.000000 
					CHANNELS 3 Zrotation Yrotation Xrotation
					JOINT LeftHand
					{
						OFFSET 3.483560 -0.000000 -0.000000 
						CHANNELS 3 Zrotation Yrotation Xrotation
						JOINT LeftHandIndex1
						{
							OFFSET 0.715260 -0.000000 -0.000000 
							CHANNELS 3 Zrotation Yrotation Xrotation
							End Site
							{
								OFFSET 0.000000 0.000000 0.000000 
							}
						}
					}
				}
			}
			JOINT RightArm
			{
				OFFSET -3.136600 1.374050 -0.404650 
				CHANNELS 3 Zrotation Yrotation Xrotation
				JOINT RightForeArm
				{
					OFFSET -5.241900 -0.000000 -0.000000 
					CHANNELS 3 Zrotation Yrotation Xrotation
					JOINT RightHand
					{
						OFFSET -3.444170 -0.000000 -0.000000 
						CHANNELS 3 Zrotation Yrotation Xrotation
						JOINT RightHandIndex1
						{
							OFFSET -0.622530 -0.000000 -0.000000 
							CHANNELS 3 Zrotation Yrotation Xrotation
							End Site
							{
								OFFSET 0.000000 0.000000 0.000000 
							}
						}
					}
				}
			}
		}
	}
}
MOTION
Frames: 16
Frame Time: 0.041667
-13.439977 17.631712 22.202832 -9.563485 43.798404 -3.142175 -9.341966 4.587034 -15.854484 2.426705 12.466866 34.472171 0.502501 3.962954 -19.173586 0.283500 3.424600 9.463100 19.225836 0.761856 -15.392497 -2.884935 -12.519390 34.599567 -2.099800 10.564264 -7.985115 -0.969900 -6.270000 17.569800 2.386492 -6.268877 -3.233363 6.917705 -2.945849 -2.433038 10.235792 -24.644022 0.230219 6.156500 -12.415700 4.784900 -88.622672 5.599535 17.349971 15.322966 -26.640832 -3.859999 0.004911 0.357694 -3.769958 -7.125000 0.000000 0.000000 82.379941 -0.653694 18.199458 -13.660921 22.102609 -3.092974 0.500461 -0.169193 -11.314297 7.125000 0.000000 0.000000 
-13.441501 17.641773 22.195515 -9.433372 44.100432 -3.085181 -9.461800 4.246678 -15.773923 2.431415 12.484349 34.520230 0.500906 3.935548 -19.102340 0.269100 3.336700 9.217700 19.048923 0.865329 -15.300891 -2.880207 -12.515628 34.586369 -2.080992 10.385009 -7.993186 -1.074800 -6.590000 18.506300 2.351198 -6.268664 -3.241419 6.858943 -2.945726 -2.487203 10.155021 -24.864648 0.328812 6.082800 -12.528100 4.883000 -88.583566 5.512162 17.364961 15.243575 -26.528133 -3.824037 0.006383 0.355468 -3.688393 -7.125000 0.000000 0.000000 82.412368 -0.718464 18.297430 -13.731150 22.196145 -3.121501 0.512444 -0.173440 -11.681025 7.125000 0.000000 0.000000 
-13.443534 17.637301 22.188198 -9.244996 44.370970 -2.880670 -9.630785 3.991016 -15.844409 2.424966 12.484929 34.517368 0.498405 3.913588 -19.034184 0.252700 3.234300 8.931600 18.851069 0.904383 -15.123005 -2.890031 -12.530221 34.620740 -2.089962 10.123532 -8.516081 -0.910300 -6.079700 17.015800 2.305780 -6.239746 -3.275450 6.761049 -2.928481 -2.569699 10.043568 -25.056564 0.325186 5.996600 -12.624500 4.879300 -88.432770 5.619766 17.820572 15.262806 -26.548953 -3.827667 0.009821 0.351267 -3.917715 -7.125000 0.000000 0.000000 82.495536 -0.840398 18.208776 -13.772976 22.251984 -3.138038 0.508561 -0.167245 -11.804252 7.125000 0.000000 0.000000 
-13.442416 17.628256 22.183624 -9.138057 44.581422 -2.648868 -9.761461 4.056898 -16.103392 2.421758 12.476317 34.500300 0.469080 3.965991 -18.836977 0.202900 2.900700 8.002500 18.732297 0.554556 -15.300617 -2.905032 -12.540176 34.661214 -2.115585 10.101147 -8.856869 -0.713600 -5.398400 15.048600 2.292485 -6.217821 -3.301347 6.750758 -2.914854 -2.553068 10.044589 -25.135492 0.357208 5.987900 -12.665900 4.903500 -88.421557 5.796173 18.144823 15.414235 -26.743620 -3.886405 0.015079 0.346135 -4.095244 -7.125000 0.000000 0.000000 82.546933 -0.959463 18.018044 -13.828103 22.331525 -3.161713 0.505724 -0.163748 -11.768518 7.125000 0.000000 0.000000 
-13.438147 17.636082 22.179153 -9.303793 44.826948 -2.753690 -9.684481 3.973655 -16.124256 2.438701 12.492093 34.563051 0.461743 3.942606 -18.720095 0.188900 2.799500 7.721000 18.785456 0.356864 -15.563528 -2.902910 -12.530135 34.648725 -2.109946 10.222798 -8.576556 -0.833900 -5.825600 16.279100 2.332292 -6.293476 -3.293942 6.830531 -2.953277 -2.501990 10.040065 -25.122402 0.418912 5.974800 -12.658400 4.942200 -88.582411 5.956050 18.200155 15.695231 -27.105251 -4.003931 0.015401 0.347010 -4.385367 -7.125000 0.000000 0.000000 82.464045 -1.004263 18.243359 -13.901568 22.433753 -3.191545 0.508363 -0.162052 -11.750846 7.125000 0.000000 0.000000 
-13.435302 17.639232 22.171734 -9.537398 45.167970 -3.028697 -9.533792 3.594127 -15.941809 2.464169 12.523324 34.666991 0.537833 3.592236 -18.845664 0.274900 3.372700 9.318200 18.920234 0.102656 -15.788701 -2.888309 -12.512865 34.598159 -2.070193 10.034393 -8.352265 -0.884300 -5.994500 16.768400 2.387749 -6.421495 -3.230637 6.923621 -3.024237 -2.338036 10.027473 -25.152577 0.271641 5.960300 -12.662900 4.855200 -88.711673 5.993332 18.419088 16.044760 -27.561779 -4.155377 0.009101 0.351904 -4.808818 -7.125000 0.000000 0.000000 82.293038 -0.829589 18.664301 -13.937798 22.484664 -3.204885 0.506460 -0.154080 -12.026075 7.125000 0.000000 0.000000 
-13.436318 17.621447 22.157099 -9.645972 45.551244 -3.218931 -9.506793 3.228933 -15.835035 2.480837 12.550581 34.754477 0.576580 3.439730 -18.954097 0.318800 3.629700 10.037100 18.977907 -0.422853 -15.824776 -2.883282 -12.512650 34.576574 -2.050962 9.755919 -8.549380 -0.742600 -5.504900 15.354300 2.389323 -6.441259 -3.191357 6.866389 -3.039369 -2.290180 9.906158 -25.315115 0.210490 5.876600 -12.741000 4.802700 -88.705725 5.886526 18.737873 16.155850 -27.703319 -4.202048 0.009036 0.352564 -5.050187 -7.125000 0.000000 0.000000 82.292462 -0.674466 18.378282 -13.912018 22.447148 -3.195504 0.502518 -0.158314 -12.026102 7.125000 0.000000 0.000000 
-13.434082 17.618906 22.141651 -9.671583 45.854955 -3.265575 -9.571960 2.892679 -15.772856 2.487785 12.573822 34.829276 0.545713 3.654071 -19.022865 0.269900 3.341900 9.232000 18.926945 -0.627854 -15.723529 -2.888904 -12.524377 34.598692 -2.052131 9.641951 -8.752790 -0.749400 -5.529400 15.424900 2.356845 -6.415602 -3.211934 6.694489 -3.027286 -2.400944 9.618072 -25.456469 0.335876 5.692700 -12.818000 4.799900 -88.612610 5.738843 18.995989 16.067046 -27.583425 -4.161793 0.008065 0.353529 -5.187432 -7.125000 0.000000 0.000000 82.415960 -0.686015 17.830706 -13.907188 22.432723 -3.194572 0.496879 -0.161855 -11.619676 7.125000 0.000000 0.000000 
-13.433371 17.627240 22.132199 -9.604737 46.129552 -3.185812 -9.659388 2.657786 -15.776277 2.486201 12.576723 34.834341 0.546200 3.598947 -18.927408 0.275900 3.378200 9.333600 18.831315 -0.482345 -15.695525 -2.894872 -12.533578 34.633838 -2.030696 9.380411 -8.908869 -0.774000 -5.617600 15.678700 2.347664 -6.459827 -3.207132 6.664374 -3.048696 -2.412130 9.731363 -25.489621 0.110016 5.763600 -12.830400 4.663900 -88.604451 5.482140 18.846211 15.978711 -27.475083 -4.126779 -0.001427 0.357730 -4.582128 -7.125000 0.000000 0.000000 82.412843 -0.631715 17.866595 -13.898755 22.421270 -3.190804 0.496511 -0.160238 -11.555505 7.125000 0.000000 0.000000 
-13.437639 17.621346 22.125187 -9.583468 46.494647 -3.152214 -9.697852 2.884450 -15.970169 2.485723 12.557013 34.772902 0.580299 3.194237 -18.554090 0.275900 3.378300 9.333700 18.796991 -0.290027 -15.672636 -2.901774 -12.547105 34.683892 -1.983667 8.868055 -9.190956 -0.713900 -5.399600 15.051800 2.356177 -6.531705 -3.174982 6.711201 -3.080679 -2.406732 10.402554 -25.512299 -0.505494 6.186600 -12.830400 4.446000 -88.682093 5.349328 18.762423 16.020624 -27.534182 -4.146843 -0.005729 0.360146 -4.304097 -7.125000 0.000000 0.000000 82.346906 -0.603524 17.958848 -13.912443 22.455176 -3.198961 0.494163 -0.161480 -11.656965 7.125000 0.000000 0.000000 
-13.433269 17.641468 22.118378 -9.639444 46.861510 -3.205395 -9.585079 2.154450 -15.534829 2.501885 12.554211 34.749242 0.895661 1.493703 -18.735258 0.974500 6.284300 17.611700 18.742166 0.093334 -15.604356 -2.907843 -12.564290 34.739853 -1.936725 8.469275 -9.300210 -0.792600 -5.683000 15.867300 2.370641 -6.586708 -3.164632 6.746560 -3.105274 -2.441761 10.756204 -25.580938 -0.822909 6.415500 -12.862100 4.342900 -88.769336 5.445244 18.979051 16.168166 -27.723592 -4.208854 -0.005204 0.360346 -4.761905 -7.125000 0.000000 0.000000 82.293345 -0.663699 17.786943 -13.946962 22.513516 -3.216338 0.490230 -0.163361 -11.565346 7.125000 0.000000 0.000000 
-13.428289 17.659457 22.108520 -9.548928 47.249968 -3.194022 -9.588709 1.218681 -15.041233 2.536201 12.583419 34.823082 1.182489 -0.072481 -18.956401 1.970000 8.803400 25.182100 18.615053 0.163237 -15.464320 -2.914022 -12.585029 34.789073 -1.888824 7.884802 -9.760651 -0.601300 -4.963600 13.804900 2.372086 -6.670082 -3.175676 6.786676 -3.144650 -2.516174 10.647671 -25.646459 -0.855241 6.358500 -12.898400 4.274100 -88.808676 5.558116 18.954937 16.265439 -27.841219 -4.245192 -0.004342 0.353897 -4.616037 -7.125000 0.000000 0.000000 82.273412 -0.712036 17.768669 -13.917221 22.469702 -3.203833 0.496789 -0.170641 -11.568049 7.125000 0.000000 0.000000 
-13.434387 17.627951 22.097747 -9.507352 47.698193 -3.198874 -9.761557 2.146540 -15.709692 2.545893 12.591032 34.878862 0.963413 0.810269 -18.273177 1.101000 6.667400 18.733600 18.643186 -0.348495 -15.472012 -2.935056 -12.618199 34.892019 -1.832025 7.126486 -10.496402 -0.256900 -3.260900 9.006000 2.382590 -6.755473 -3.197898 6.869124 -3.180389 -2.601288 10.492224 -25.761695 -0.680363 6.260900 -12.965100 4.354300 -88.828102 5.704522 19.061479 16.435379 -28.047802 -4.313534 -0.006718 0.349441 -4.421774 -7.125000 0.000000 0.000000 82.174901 -0.804023 18.065197 -13.910702 22.458743 -3.199953 0.510097 -0.176667 -11.823173 7.125000 0.000000 0.000000 
-13.442924 17.608134 22.088498 -9.755287 48.148525 -3.384410 -9.721802 2.964391 -16.302142 2.528981 12.550889 34.785309 0.738079 1.679369 -17.482995 0.414900 4.134800 11.456200 18.812653 -0.453808 -15.755628 -2.985106 -12.679491 35.125730 -1.795436 6.762997 -10.772485 -0.237900 -3.138800 8.665300 2.426648 -6.841999 -3.226735 6.960135 -3.215436 -2.716833 10.329276 -25.936363 -0.544968 6.164600 -13.061000 4.432600 -88.898818 5.918911 19.316717 16.757264 -28.450855 -4.456692 -0.016353 0.356452 -4.654640 -7.125000 0.000000 0.000000 81.996492 -0.943284 18.514120 -13.952633 22.515448 -3.215294 0.521105 -0.170728 -12.049399 7.125000 0.000000 0.000000 
-13.443229 17.629882 22.079555 -9.768868 48.607315 -3.424862 -9.743263 3.004735 -16.299515 2.501385 12.493345 34.596702 0.803509 1.075744 -17.104402 0.476100 4.424900 12.275300 18.665987 -0.058622 -16.094976 -3.050352 -12.753854 35.422187 -1.783719 6.712734 -10.722104 -0.396900 -4.045100 11.203600 2.444730 -6.948643 -3.230525 7.018080 -3.265597 -2.775403 10.275069 -26.048776 -0.637373 6.133100 -13.115700 4.373200 -89.009733 5.897352 19.239843 16.898640 -28.628142 -4.522405 -0.020613 0.361512 -4.684058 -7.125000 0.000000 0.000000 81.882995 -0.943144 18.784770 -13.931608 22.484251 -3.204832 0.527546 -0.167735 -12.118930 7.125000 0.000000 0.000000 
-13.438452 17.641265 22.070916 -9.314990 49.038887 -3.175266 -10.133610 3.112119 -16.211433 2.454051 12.442074 34.388300 0.837816 0.761361 -16.928273 0.428200 4.199500 11.638600 18.175238 0.306857 -16.150649 -3.105038 -12.818230 35.669123 -1.760704 6.544677 -10.734575 -0.535800 -4.690300 13.027400 2.417219 -7.005696 -3.193883 7.119196 -3.295519 -2.689571 10.401081 -26.134911 -0.754935 6.186500 -13.151600 4.347500 -89.060635 5.715512 19.322424 16.915212 -28.656770 -4.531499 -0.019591 0.363227 -4.745554 -7.125000 0.000000 0.000000 81.834918 -0.786010 18.732225 -13.841210 22.359934 -3.167963 0.532254 -0.175214 -12.054473 7.125000 0.000000 0.000000 
